<svg width="24" height="24" viewBox="0 0 24 24" fill="none" xmlns="http://www.w3.org/2000/svg">
<mask id="mask0_77_724" style="mask-type:alpha" maskUnits="userSpaceOnUse" x="0" y="0" width="24" height="24">
<rect width="24" height="24" fill="#D9D9D9"/>
</mask>
<g mask="url(#mask0_77_724)">
<path d="M12 9.1059C12.309 9.1059 12.5705 8.99882 12.7845 8.78465C12.9986 8.57065 13.1057 8.30915 13.1057 8.00015C13.1057 7.69115 12.9986 7.42965 12.7845 7.21565C12.5705 7.00148 12.309 6.8944 12 6.8944C11.691 6.8944 11.4295 7.00148 11.2155 7.21565C11.0013 7.42965 10.8942 7.69115 10.8942 8.00015C10.8942 8.30915 11.0013 8.57065 11.2155 8.78465C11.4295 8.99882 11.691 9.1059 12 9.1059ZM12.0022 14.2981C11.4179 14.2981 10.8897 14.1318 10.4177 13.7991C9.94573 13.4665 9.61223 13.0213 9.41723 12.4636C9.33389 12.4828 9.25089 12.4966 9.16823 12.5049C9.08556 12.5132 8.99939 12.5174 8.90973 12.5174C8.15406 12.5174 7.50748 12.2507 6.96998 11.7174C6.43231 11.1841 6.16348 10.5386 6.16348 9.7809C6.16348 9.4579 6.22339 9.1464 6.34323 8.8464C6.46323 8.5464 6.63023 8.26431 6.84423 8.00015C6.64039 7.73598 6.48014 7.4539 6.36348 7.1539C6.24681 6.8539 6.18848 6.5424 6.18848 6.2194C6.18848 5.46173 6.45331 4.81623 6.98298 4.2829C7.51281 3.74956 8.15506 3.4829 8.90973 3.4829C8.99939 3.4829 9.08556 3.48706 9.16823 3.4954C9.25089 3.50373 9.33714 3.51432 9.42698 3.52715C9.62181 2.97582 9.95289 2.53381 10.4202 2.20115C10.8876 1.86848 11.4141 1.70215 12 1.70215C12.5858 1.70215 13.1124 1.86848 13.5797 2.20115C14.0471 2.53381 14.3781 2.97582 14.573 3.52715C14.6628 3.51432 14.7491 3.50373 14.8317 3.4954C14.9144 3.48706 15.0006 3.4829 15.0902 3.4829C15.8449 3.4829 16.4871 3.74956 17.017 4.2829C17.5466 4.81623 17.8115 5.46173 17.8115 6.2194C17.8115 6.54473 17.7557 6.8584 17.6442 7.1604C17.5326 7.46256 17.3697 7.74248 17.1557 8.00015C17.3596 8.26431 17.5198 8.5464 17.6365 8.8464C17.7531 9.1464 17.8115 9.4579 17.8115 9.7809C17.8115 10.5386 17.5466 11.1841 17.017 11.7174C16.4871 12.2507 15.8449 12.5174 15.0902 12.5174C15.0006 12.5174 14.9144 12.5132 14.8317 12.5049C14.7491 12.4966 14.6596 12.4828 14.5635 12.4636C14.375 13.0213 14.0471 13.4665 13.5797 13.7991C13.1124 14.1318 12.5866 14.2981 12.0022 14.2981ZM12 21.4231C12 20.3373 12.2246 19.2982 12.674 18.3059C13.1233 17.3136 13.7275 16.4379 14.4865 15.6789C15.2455 14.9201 16.1211 14.3159 17.1135 13.8664C18.1058 13.4171 19.1449 13.1924 20.2307 13.1924C20.2307 14.2784 20.0061 15.3175 19.5567 16.3096C19.1074 17.302 18.5032 18.1776 17.7442 18.9366C16.9852 19.6956 16.1096 20.2998 15.1172 20.7491C14.1249 21.1985 13.0858 21.4231 12 21.4231ZM13.796 19.6271C14.9255 19.2771 15.8935 18.6989 16.7 17.8924C17.5063 17.0861 18.0845 16.1181 18.4345 14.9886C17.305 15.3386 16.3371 15.9168 15.5307 16.7231C14.7242 17.5296 14.146 18.4976 13.796 19.6271ZM12 21.4231C12 20.3373 11.7753 19.2982 11.326 18.3059C10.8766 17.3136 10.2725 16.4379 9.51348 15.6789C8.75448 14.9201 7.87881 14.3159 6.88648 13.8664C5.89414 13.4171 4.85506 13.1924 3.76923 13.1924C3.76923 14.2784 3.99389 15.3175 4.44323 16.3096C4.89256 17.302 5.49673 18.1776 6.25573 18.9366C7.01473 19.6956 7.89039 20.2998 8.88273 20.7491C9.87506 21.1985 10.9141 21.4231 12 21.4231ZM10.204 19.6271C9.07448 19.2771 8.10648 18.6989 7.29998 17.8924C6.49364 17.0861 5.91548 16.1181 5.56548 14.9886C6.69498 15.3386 7.66289 15.9168 8.46923 16.7231C9.27573 17.5296 9.85398 18.4976 10.204 19.6271ZM15.0902 11.0174C15.4307 11.0174 15.722 10.8962 15.964 10.6539C16.206 10.4117 16.327 10.1201 16.327 9.7789C16.327 9.52773 16.2564 9.30181 16.1152 9.10115C15.9742 8.90048 15.7877 8.76298 15.5557 8.68865L14.575 8.35965C14.5468 8.52765 14.5045 8.69182 14.448 8.85215C14.3916 9.01232 14.3218 9.16423 14.2385 9.3079C14.1551 9.4514 14.0616 9.5834 13.9577 9.7039C13.8539 9.8244 13.7353 9.93656 13.602 10.0404L14.3537 10.7214C14.4499 10.8136 14.5591 10.886 14.6815 10.9386C14.8036 10.9911 14.9399 11.0174 15.0902 11.0174ZM14.575 7.64065L15.5557 7.31165C15.7877 7.23732 15.9717 7.0974 16.1077 6.8919C16.2436 6.6864 16.3115 6.46223 16.3115 6.2194C16.3115 5.8789 16.1939 5.58765 15.9587 5.34565C15.7236 5.10381 15.4341 4.9829 15.0902 4.9829C14.9364 4.9829 14.8018 5.00915 14.6865 5.06165C14.5711 5.11432 14.4602 5.18673 14.3537 5.2789L13.5865 5.9599C13.7198 6.06373 13.841 6.1759 13.95 6.2964C14.059 6.4169 14.1551 6.5489 14.2385 6.6924C14.3218 6.83606 14.3916 6.98798 14.448 7.14815C14.5045 7.30848 14.5468 7.47265 14.575 7.64065ZM11.0422 5.5849C11.1982 5.52457 11.3542 5.47773 11.5102 5.4444C11.6662 5.41107 11.83 5.3944 12.0015 5.3944C12.1731 5.3944 12.337 5.41107 12.493 5.4444C12.649 5.47773 12.8039 5.52457 12.9577 5.5849L13.227 4.40965C13.2988 4.08915 13.2042 3.80781 12.9432 3.56565C12.6824 3.32331 12.368 3.20215 12 3.20215C11.632 3.20215 11.3176 3.32331 11.0567 3.56565C10.7957 3.80781 10.7011 4.08915 10.773 4.40965L11.0422 5.5849ZM12 12.7981C12.368 12.7981 12.6824 12.677 12.9432 12.4346C13.2042 12.1925 13.2988 11.9111 13.227 11.5906L12.9577 10.4154C12.8039 10.4821 12.649 10.5305 12.493 10.5606C12.337 10.5908 12.1731 10.6059 12.0015 10.6059C11.83 10.6059 11.6657 10.5908 11.5087 10.5606C11.3516 10.5305 11.1961 10.4821 11.0422 10.4154L10.773 11.5906C10.7011 11.9111 10.7957 12.1925 11.0567 12.4346C11.3176 12.677 11.632 12.7981 12 12.7981ZM9.42498 7.64065C9.45314 7.47265 9.49548 7.30848 9.55198 7.14815C9.60831 6.98798 9.67814 6.83606 9.76148 6.6924C9.84481 6.5489 9.93839 6.4169 10.0422 6.2964C10.1461 6.1759 10.2646 6.06373 10.398 5.9599L9.64623 5.2789C9.55006 5.18673 9.44081 5.11432 9.31848 5.06165C9.19631 5.00915 9.06006 4.9829 8.90973 4.9829C8.56923 4.9829 8.27798 5.10381 8.03598 5.34565C7.79398 5.58765 7.67298 5.8789 7.67298 6.2194C7.67298 6.46223 7.74356 6.6864 7.88473 6.8919C8.02573 7.0974 8.21223 7.23732 8.44423 7.31165L9.42498 7.64065ZM8.90973 11.0021C9.06223 11.0021 9.19806 10.9784 9.31723 10.9309C9.43656 10.8834 9.54623 10.8084 9.64623 10.7059L10.4135 10.0404C10.2801 9.93656 10.159 9.8244 10.05 9.7039C9.94098 9.5834 9.84481 9.4514 9.76148 9.3079C9.67814 9.16423 9.60831 9.01232 9.55198 8.85215C9.49548 8.69182 9.45314 8.52765 9.42498 8.35965L8.44423 8.68865C8.21223 8.76298 8.02664 8.9029 7.88748 9.1084C7.74831 9.3139 7.67873 9.53806 7.67873 9.7809C7.68906 10.1232 7.81123 10.4123 8.04523 10.6481C8.27923 10.8841 8.56739 11.0021 8.90973 11.0021Z" fill="#697B7C"/>
</g>
</svg>
